<?xml version="1.0" encoding="utf-8"?>
<!-- Generator: Adobe Illustrator 16.0.0, SVG Export Plug-In . SVG Version: 6.00 Build 0)  -->
<!DOCTYPE svg PUBLIC "-//W3C//DTD SVG 1.1//EN" "http://www.w3.org/Graphics/SVG/1.1/DTD/svg11.dtd">
<svg version="1.1" id="Calque_1" xmlns="http://www.w3.org/2000/svg" xmlns:xlink="http://www.w3.org/1999/xlink" x="0px" y="0px"
	 width="500px" height="560px" viewBox="0 0 500 560" enable-background="new 0 0 500 560" xml:space="preserve">
<rect x="315.558" y="167.994" fill="none" width="621.716" height="123.084"/>
<g>
	<path fill="#9933FF" d="M313.016,124.588c0-23.413-18.999-42.411-42.413-42.411s-42.41,18.999-42.41,42.411
		c0,23.415,18.996,42.411,42.41,42.411S313.016,148.003,313.016,124.588z"/>
	<path fill="#FF3399" d="M72.688,251.822c-23.415,0-42.411,18.995-42.411,42.41c0,23.413,18.997,42.411,42.411,42.411
		c23.414,0,42.41-18.998,42.41-42.411C115.099,270.816,96.103,251.822,72.688,251.822z"/>
	<path fill="#9933FF" d="M270.604,393.189c-23.414,0-42.41,18.996-42.41,42.409c0,23.414,18.996,42.411,42.41,42.411
		s42.413-18.997,42.413-42.411C313.016,412.186,294.018,393.189,270.604,393.189z"/>
	<path d="M285,366.33V193.859c32-6.538,56.419-35.077,56.419-69.271c0-39.052-31.697-70.594-70.75-70.594
		c-39.054,0-70.717,31.632-70.717,70.685c0,33.485,23.397,61.582,54.764,68.827c-4.151,28.362-15.205,50.628-33.141,66.354
		c-24.032,21.029-56.199,26.86-78.463,28.008c-3.269-36.047-33.577-64.322-70.421-64.322c-39.052,0-70.685,31.632-70.685,70.685
		c0,39.052,31.631,70.685,70.683,70.685c31.367,0,57.872-20.409,67.15-48.597c26.594-0.795,68.299-7.066,100.462-35.075
		c6.095-5.302,11.699-11.223,16.699-17.585V366.33c-33,6.537-56.814,35.076-56.814,69.269c0,39.055,31.498,70.685,70.552,70.685
		c39.053,0,70.749-31.63,70.749-70.685C341.486,401.406,317,372.867,285,366.33z M72.688,336.643
		c-23.415,0-42.411-18.998-42.411-42.411c0-23.415,18.997-42.41,42.411-42.41c23.414,0,42.41,18.995,42.41,42.41
		C115.099,317.645,96.103,336.643,72.688,336.643z M270.604,478.01c-23.414,0-42.41-18.997-42.41-42.411
		c0-23.413,18.996-42.409,42.41-42.409s42.413,18.996,42.413,42.409C313.016,459.013,294.018,478.01,270.604,478.01z
		 M270.604,82.177c23.414,0,42.413,18.999,42.413,42.411c0,23.415-18.999,42.411-42.413,42.411s-42.41-18.996-42.41-42.411
		C228.193,101.176,247.189,82.177,270.604,82.177z"/>
</g>
</svg>
